<svg height="512pt" preserveAspectRatio="xMidYMid meet" viewBox="0 0 512 512" width="512pt" xmlns="http://www.w3.org/2000/svg"><g transform="matrix(.1 0 0 -.1 0 512)"><path d="m1228 3036c-153-12-280-24-283-27s3-30 13-60l19-54 256-3c166-1 257-6 257-13 0-16-49-108-98-184-102-159-258-318-464-471-57-42-108-79-115-81-20-8-15-25 17-62l29-35 53 29c147 79 318 204 439 322l66 64 99-104c54-58 133-150 174-205 41-56 78-100 82-99s36 36 73 77l66 75-48 44c-53 49-301 237-350 266l-31 18 53 71c55 73 125 187 170 277l26 50-51 65-52 64-61-1c-34-1-187-11-339-23z"/><path d="m3724 3031c-49-30-74-68-74-115 0-180 255-197 276-19 13 107-111 189-202 134z"/><path d="m4091 2938c-26-101-84-264-127-357-82-176-200-327-337-430-61-47-63-54-14-99 30-28 29-29 162 62 175 118 313 282 409 487 57 120 122 308 110 318-5 4-45 20-89 36s-85 30-91 32c-5 2-16-20-23-49z"/><path d="m3364 2921c-97-44-112-163-30-240 37-35 118-40 164-11 44 27 75 97 66 146-9 48-57 101-102 114-48 13-50 13-98-9z"/><path d="m2060 2665c0-13 43-161 49-167 4-5 914 45 939 51 1 1 2 28 2 61v60h-495c-272 0-495-2-495-5z"/></g></svg>