<?xml version="1.0" standalone="no"?>
<!DOCTYPE svg PUBLIC "-//W3C//DTD SVG 20010904//EN"
 "http://www.w3.org/TR/2001/REC-SVG-20010904/DTD/svg10.dtd">
<svg version="1.0" xmlns="http://www.w3.org/2000/svg"
 width="103.000000pt" height="103.000000pt" viewBox="0 0 103.000000 103.000000"
 preserveAspectRatio="xMidYMid meet">
<metadata>
Created by potrace 1.14, written by Peter Selinger 2001-2017
</metadata>
<g transform="translate(0.000000,103.000000) scale(0.100000,-0.100000)"
fill="#000000" stroke="none">
<path d="M448 984 c-45 -14 -93 -53 -72 -61 6 -2 41 -18 79 -36 l69 -33 73 30
c40 17 73 36 73 41 0 16 -61 52 -105 63 -50 12 -60 12 -117 -4z"/>
<path d="M91 891 c-8 -14 -4 -33 15 -77 l25 -59 118 -22 c65 -13 152 -34 194
-48 l77 -26 47 21 47 21 -49 36 c-76 55 -219 119 -329 147 -117 31 -132 32
-145 7z"/>
<path d="M790 876 c-124 -43 -170 -63 -170 -74 0 -12 82 -82 95 -81 6 0 50 8
100 17 l89 17 25 64 c24 62 25 64 6 77 -26 19 -35 17 -145 -20z"/>
<path d="M17 679 c-24 -14 -21 -38 12 -105 31 -64 47 -132 55 -237 8 -94 38
-157 103 -217 53 -49 124 -80 180 -80 30 0 29 5 -7 46 -128 147 -126 372 6
481 24 21 44 40 44 43 0 9 -116 37 -225 55 -55 8 -111 17 -125 19 -14 3 -33 0
-43 -5z"/>
<path d="M835 665 c-166 -30 -233 -48 -314 -87 -82 -39 -156 -113 -172 -171
-24 -91 16 -224 87 -286 68 -60 111 -76 204 -76 75 0 91 4 138 30 107 58 157
146 166 292 7 105 6 101 54 207 l36 78 -23 19 c-27 22 -13 23 -176 -6z"/>
</g>
</svg>
